<svg width="16" height="16" viewBox="0 0 16 16" fill="none" xmlns="http://www.w3.org/2000/svg">
    <path d="M8 0C3.58 0 0 3.58 0 8C0 11.54 2.29 14.46 5.47 15.54C5.87 15.61 6.02 15.34 6.02 15.1C6.02 14.88 6.01 14.3 6.01 13.39C4 13.92 3.48 12.7 3.48 12.7C3.15 11.84 2.63 11.62 2.63 11.62C1.91 11.16 2.68 11.17 2.68 11.17C3.48 11.22 3.91 12.03 3.91 12.03C4.6 13.21 5.77 12.86 6.22 12.66C6.29 12.15 6.49 11.84 6.72 11.67C4.89 11.5 2.99 10.81 2.99 7.7C2.99 6.82 3.31 6.12 3.82 5.61C3.74 5.43 3.48 4.6 3.9 3.45C3.9 3.45 4.61 3.22 6 4.12C6.66 3.94 7.34 3.87 8.01 3.87C8.68 3.87 9.36 3.94 10.02 4.12C11.41 3.22 12.12 3.45 12.12 3.45C12.54 4.6 12.28 5.43 12.2 5.61C12.71 6.12 13.02 6.82 13.02 7.7C13.02 10.82 11.11 11.49 9.28 11.66C9.54 11.87 9.77 12.27 9.77 12.91C9.77 13.88 9.76 14.7 9.76 15.1C9.76 15.34 9.91 15.62 10.31 15.54C13.5 14.46 15.79 11.54 15.79 8C15.79 3.58 12.21 0 7.79 0H8Z" fill="white"/>
  </svg>
  